Supernatural S06E12 HDTV 720p DD5.1 ENG + NL Subs

Verenigde Staten / Canada ~ 60 minuten ~ gecreëerd door Eric Kripke ~ met Jared Padalecki & Jensen Ackles

Supernatural gaat over de broers Winchester die het bovennatuurlijke kwaad bestrijden. Ze nemen hierbij de taak van hun vader John over, die hiermee begonnen is om de dood van zijn vrouw te wreken. Dankzij hun vader groeien Sam en Dean op als demonenjagers. In elke aflevering lossen Dean en Sam een mysterie op door met een bovennatuurlijke tegenstander af te rekenen. Mysteries draaien meestal om kwaadaardige geesten, maar ook vampiers, weerwolven en andere demonen moeten worden verslagen.

Bestandsformaat: .MKV
Bestandsgrootte: 1,09 GB
Taal: Engels in DD5.1
Ondertitelingen: Engels en Nederlands ~ biede custom (in te stellen)
Categorie : Serie
Formaat : NVT
Bron : HDTV 720p
Menu: Nee
Extra's: Nee
Genre : Mysterie
Weblink : http://www.imdb.com/title/tt0460681/

~~~~~~~~~~~~~~~~~~~~~~
USA / Canada ~ 60 minutes ~ created by Eric Kripke ~ with Jared Padalecki & Jensen Ackles.

This television drama is about two brothers, Sam and Dean, who were raised by their father, John, to hunt and kill all things that go "bump in the night" after his wife, Mary, was murdered by something supernaturally evil when the boys were young. 22 years later the brothers set out on a journey, fighting evil along the way, to find their recently missing father who, when they finally meet up with, reveals he knows what killed their mother, a demon, and has found a way to track and kill it. Meanwhile, Sam starts to develop frightening abilities that include death visions, visions of people dying before it actually happens. These visions are somehow connected to the demon who murdered his mother and it's mysterious plans that seem to be all about Sam. When their father dies striking a deal with the very same devil that had killed his wife, the brothers, now alone and without their mentor...

File Format: .MKV
File size: 1.09 GB
Language: English in DD5.1
Subtitles: English and Dutch ~ both custom (selectable)
Category : Serie
Format : -
Source : HDTV 720p
Menu: No
Extras: No
Genre : Mystery
Weblink : http://www.imdb.com/title/tt0460681/

Video and audio information:
~~~~~~~~~~~~~~~~~~~~~~
Video
ID                               : 1
Format                           : AVC
Format/Info                      : Advanced Video Codec
Format profile                   : High@L3.1
Format settings, CABAC           : Yes
Format settings, ReFrames        : 3 frames
Muxing mode                      : Container profile=Unknown@3.1
Codec ID                         : V_MPEG4/ISO/AVC
Duration                         : 41mn 30s
Bit rate                         : 3 380 Kbps
Width                            : 1 280 pixels
Height                           : 720 pixels
Display aspect ratio             : 16:9
Frame rate                       : 23.976 fps
Color space                      : YUV
Chroma subsampling               : 4:2:0
Bit depth                        : 8 bits
Scan type                        : Progressive
Bits/(Pixel*Frame)               : 0.153
Stream size                      : 983 MiB (88%)
Writing library                  : x264 core 88 r1471 1144615
Encoding settings                : cabac=1 / ref=3 / deblock=1:0:0 / analyse=0x3:0x113 / me=hex / subme=6 / psy=1 / psy_rd=1.00:0.00 / mixed_ref=0 / me_range=16 / chroma_me=1 / trellis=1 / 8x8dct=1 / cqm=0 / deadzone=21,11 / fast_pskip=1 / chroma_qp_offset=-2 / threads=30 / sliced_threads=0 / nr=0 / decimate=1 / mbaff=0 / constrained_intra=0 / bframes=6 / b_pyramid=1 / b_adapt=2 / b_bias=0 / direct=1 / wpredb=1 / wpredp=0 / keyint=240 / keyint_min=24 / scenecut=40 / intra_refresh=0 / rc_lookahead=40 / rc=2pass / mbtree=1 / bitrate=3380 / ratetol=1.0 / qcomp=0.60 / qpmin=10 / qpmax=51 / qpstep=4 / cplxblur=20.0 / qblur=0.5 / ip_ratio=1.40 / aq=1:1.00
Language                         : English

Audio
ID                               : 2
Format                           : AC-3
Format/Info                      : Audio Coding 3
Mode extension                   : CM (complete main)
Codec ID                         : A_AC3
Duration                         : 41mn 31s
Bit rate mode                    : Constant
Bit rate                         : 384 Kbps
Channel(s)                       : 6 channels
Channel positions                : Front: L C R, Side: L R, LFE
Sampling rate                    : 48.0 KHz
Bit depth                        : 16 bits
Stream size                      : 114 MiB (10%)
Title                            : English
Language                         : English

~~~~~~~~~~~~~~~
Hornigold TBS
~~~~~~~~~~~~~~~